<svg width="211" height="90" viewBox="0 0 211 90" fill="none" xmlns="http://www.w3.org/2000/svg">
<path d="M90.0353 45.0004C90.0353 39.4645 88.986 34.1844 87.1568 29.2869C86.6728 45.4072 70.2819 57.8882 60.6588 66.1476H84.7461C88.1131 59.8411 90.0353 52.6465 90.0353 45.0004ZM72.6221 9.50487C64.9956 3.56932 55.4333 0 45.0186 0C20.1557 0 0 20.1484 0 45.0004C0 69.8522 20.1557 90 45.0186 90C56.4037 90 66.7703 85.7419 74.6981 78.7734H42.1061L42.0068 69.2058C61.6446 52.1403 73.6829 40.5992 73.6829 29.4516C73.6829 25.3086 72.1042 20.0805 64.9999 20.0805C59.3744 20.0805 53.9476 23.338 54.9339 36.9492H43.488C40.6256 21.1677 49.211 8.63873 65.5904 8.63873C68.1298 8.63873 70.4787 8.94177 72.6221 9.50487Z" fill="white"/>
<path d="M131.79 31.1023H142.438C142.802 23.0063 140.072 10.1768 122.508 10.1768C109.583 10.1768 100.209 17.9115 100.209 34.0137C100.209 36.1974 100.299 47.4782 100.299 54.4832C100.299 71.9528 112.405 75.7727 122.598 75.7727C128.696 75.7727 137.524 74.4074 141.619 69.9499V42.1105H121.597V52.2094H130.517V64.4917C123.781 66.7656 111.494 67.676 111.494 52.2094V34.0137C111.494 23.1871 116.501 19.4574 122.051 19.4574C127.786 19.4574 131.79 22.3688 131.79 31.1023ZM210.994 58.1217C211.449 33.1955 182.873 41.4729 183.144 27.5541C183.234 22.6424 186.42 19.4574 191.609 19.4574C197.161 19.4574 200.435 22.7327 200.344 31.2855H210.811C211.085 23.551 209.264 10.3599 191.973 10.3599C181.233 10.3599 172.406 15.6376 172.223 27.3728C171.768 51.2982 200.528 43.4751 200.073 57.941C199.89 63.8541 195.612 66.4919 190.789 66.4919C185.147 66.4919 180.596 63.2168 181.507 53.3913H170.947C169.765 66.4016 175.499 75.6824 190.699 75.6824C203.53 75.6824 210.811 68.5845 210.994 58.1217ZM162.914 74.8615H152.176V11.1782H162.914V74.8615ZM162.914 74.8615H152.176V11.1782H162.914V74.8615Z" fill="white"/>
</svg>
