<svg width="38" height="26" viewBox="0 0 38 26" fill="none" xmlns="http://www.w3.org/2000/svg">
<path d="M35.0876 25.833C33.3105 25.833 32.2564 24.9236 32.1758 23.6137H33.875C33.875 24.0503 34.117 24.6316 35.1683 24.6677C35.8969 24.6677 36.3002 24.2311 36.3002 23.9029C36.2195 23.394 35.5715 23.3578 34.9263 23.2466C34.1977 23.1409 33.6331 22.9935 33.227 22.8127C32.6625 22.5207 32.3371 21.9005 32.3371 21.247C32.3371 20.0817 33.3105 19.1722 35.007 19.1722C36.6256 19.1722 37.6768 20.0094 37.7547 21.2831H36.1389C36.1389 20.9577 36.0582 20.4098 35.0876 20.4098C34.4396 20.4098 34.0363 20.5183 33.9557 20.9911C33.9557 21.6474 35.3296 21.6113 36.3808 21.8644C37.3514 22.1202 37.9994 22.7376 37.9994 23.6137C37.9994 25.2156 36.7062 25.833 35.0876 25.833Z" fill="white"/>
<path d="M4.12305 15.0856L9.70196 11.8456L12.6944 16.9795H5.17431" fill="white"/>
<path d="M16.1611 18.3818H15.4766V17.6973H16.1611V18.3818Z" fill="white" stroke="white"/>
<path d="M15.4766 25.1211V19.9443H16.1611V25.1211H15.4766Z" fill="white" stroke="white"/>
<path d="M1.53517 22.4963C1.53517 23.5142 2.42513 24.3513 3.39296 24.3513C4.447 24.3513 5.25352 23.5142 5.25352 22.4963C5.25352 21.5145 4.447 20.6413 3.39296 20.6413C2.42513 20.6413 1.53517 21.5145 1.53517 22.4963ZM3.31231 25.8447C1.53517 25.8447 0 24.3513 0 22.4963C0 20.6413 1.53517 19.184 3.31231 19.184C4.04096 19.184 4.68896 19.3675 5.25352 19.7652V19.2563H6.87213V25.6973H5.25352V25.2968C4.76961 25.6612 4.04096 25.8447 3.31231 25.8447Z" fill="white"/>
<path d="M24.9046 16.9785L17.1426 3.44016L22.7214 0.164034L32.4247 16.9785" fill="white"/>
<path d="M8.97463 22.5347C8.97463 23.5409 9.78393 24.3684 10.8352 24.3684C11.803 24.3684 12.6958 23.5409 12.6958 22.5347C12.6958 21.5643 11.803 20.7011 10.8352 20.7011C9.78393 20.7011 8.97463 21.5643 8.97463 22.5347ZM10.7545 25.8447C8.89397 25.8447 7.43945 24.3684 7.43945 22.5347C7.43945 20.7011 8.89397 19.2605 10.7545 19.2605C11.4804 19.2605 12.1284 19.442 12.6958 19.8351V17.1382H14.3116V25.699H12.6958V25.3031C12.1284 25.6633 11.4804 25.8447 10.7545 25.8447Z" fill="white"/>
<path d="M10.6738 9.29791L16.3334 6.09685L22.5603 16.9766H16.656L15.8363 16.9765L15.0402 16.9766" fill="white"/>
<path d="M36.9499 18.7197C36.5439 18.7197 36.1406 18.3599 36.1406 17.9287C36.1406 17.4975 36.5439 17.1377 36.9499 17.1377C37.4338 17.1377 37.7592 17.4975 37.7592 17.9287C37.7592 18.3599 37.4338 18.7197 36.9499 18.7197ZM36.9499 17.2476C36.5439 17.2476 36.3019 17.5689 36.3019 17.9287C36.3019 18.2885 36.5439 18.6126 36.9499 18.6126C37.3532 18.6126 37.5951 18.2885 37.5951 17.9287C37.5951 17.5689 37.3532 17.2476 36.9499 17.2476Z" fill="white"/>
<path d="M37.1208 18.3633L36.9595 18.0035H36.7982V18.3633H36.6758V17.5009H37.0401C37.1208 17.5009 37.2821 17.6107 37.2821 17.7536C37.2821 17.8964 37.2014 17.9678 37.1208 18.0035L37.2821 18.3633H37.1208ZM36.9595 17.6107H36.7982V17.8964H36.9595C37.1208 17.8964 37.1208 17.8607 37.1208 17.7536C37.1208 17.6794 37.1208 17.6107 36.9595 17.6107Z" fill="white"/>
<path d="M26.2735 22.5379C26.2735 23.5431 27.0828 24.3698 28.134 24.3698C29.1046 24.3698 29.9918 23.5431 29.9918 22.5379C29.9918 21.5684 29.1046 20.706 28.134 20.706C27.0828 20.706 26.2735 21.5684 26.2735 22.5379ZM28.0506 25.8447C26.1928 25.8447 24.7383 24.3698 24.7383 22.5379C24.7383 20.706 26.1928 19.2668 28.0506 19.2668C28.7792 19.2668 29.4272 19.4481 29.9918 19.8408V19.3382H31.5298V25.6992H29.9918V25.3037C29.4272 25.6635 28.7792 25.8447 28.0506 25.8447Z" fill="white"/>
<path d="M18.8399 22.5379C18.8399 23.5431 19.7298 24.3698 20.7004 24.3698C21.7517 24.3698 22.561 23.5431 22.561 22.5379C22.561 21.5684 21.7517 20.706 20.7004 20.706C19.7298 20.706 18.8399 21.5684 18.8399 22.5379ZM22.561 17.1465H24.1768V25.6992H22.561V25.3037C22.0743 25.6635 21.4263 25.8447 20.7004 25.8447C18.8399 25.8447 17.3047 24.3698 17.3047 22.5379C17.3047 20.706 18.8399 19.2668 20.7004 19.2668C21.4263 19.2668 22.0743 19.4481 22.561 19.8408V17.1465Z" fill="white"/>
</svg>
