<svg width="134" height="91" viewBox="0 0 134 91" fill="none" xmlns="http://www.w3.org/2000/svg">
<path d="M123.688 90.4854C117.424 90.4854 113.708 87.2796 113.424 82.6622H119.414C119.414 84.2014 120.267 86.2503 123.972 86.3777C126.541 86.3777 127.962 84.8386 127.962 83.6818C127.678 81.8877 125.394 81.7603 123.119 81.3682C120.551 80.9956 118.561 80.4761 117.13 79.8388C115.139 78.8095 113.992 76.6233 113.992 74.3195C113.992 70.2119 117.424 67.0061 123.404 67.0061C129.109 67.0061 132.815 69.957 133.09 74.4469H127.394C127.394 73.2999 127.109 71.3687 123.688 71.3687C121.404 71.3687 119.982 71.751 119.698 73.4176C119.698 75.7312 124.541 75.6038 128.247 76.4959C131.668 77.3978 133.952 79.5741 133.952 82.6622C133.952 88.309 129.394 90.4854 123.688 90.4854Z" fill="white"/>
<path d="M14.5391 52.5993L34.2047 41.1783L44.7532 59.2754H18.2448" fill="white"/>
<path d="M58.737 65.9791H52.7988V60.041H58.737V65.9791Z" fill="white"/>
<path d="M58.737 67.959H52.7988V89.7321H58.737V67.959Z" fill="white"/>
<path d="M5.41149 78.7211C5.41149 82.3091 8.54859 85.26 11.9602 85.26C15.6757 85.26 18.5187 82.3091 18.5187 78.7211C18.5187 75.2605 15.6757 72.1822 11.9602 72.1822C8.54859 72.1822 5.41149 75.2605 5.41149 78.7211ZM11.6759 90.5244C5.41149 90.5244 0 85.26 0 78.7211C0 72.1822 5.41149 67.0452 11.6759 67.0452C14.2444 67.0452 16.5286 67.6922 18.5187 69.0941V67.3001H24.2243V90.0048H18.5187V88.5931C16.8129 89.8774 14.2444 90.5244 11.6759 90.5244Z" fill="white"/>
<path d="M87.7908 59.2715L60.4297 11.5488L80.0952 0.000427246L114.299 59.2715" fill="white"/>
<path d="M31.6361 78.8567C31.6361 82.4036 34.4889 85.3205 38.1946 85.3205C41.6062 85.3205 44.7531 82.4036 44.7531 78.8567C44.7531 75.4359 41.6062 72.393 38.1946 72.393C34.4889 72.393 31.6361 75.4359 31.6361 78.8567ZM37.9103 90.5244C31.3518 90.5244 26.2246 85.3205 26.2246 78.8567C26.2246 72.393 31.3518 67.315 37.9103 67.315C40.469 67.315 42.7532 67.9546 44.7531 69.3404V59.8338H50.4489V90.0108H44.7531V88.6153C42.7532 89.8848 40.469 90.5244 37.9103 90.5244Z" fill="white"/>
<path d="M37.6289 32.2013L57.5789 20.9176L79.5287 59.2686H58.7161L55.8265 59.2685L53.0203 59.2686" fill="white"/>
<path d="M130.257 65.4092C128.826 65.4092 127.404 64.1409 127.404 62.6209C127.404 61.1009 128.826 59.8327 130.257 59.8327C131.963 59.8327 133.11 61.1009 133.11 62.6209C133.11 64.1409 131.963 65.4092 130.257 65.4092ZM130.257 60.2199C128.826 60.2199 127.973 61.3526 127.973 62.6209C127.973 63.8892 128.826 65.0316 130.257 65.0316C131.679 65.0316 132.531 63.8892 132.531 62.6209C132.531 61.3526 131.679 60.2199 130.257 60.2199Z" fill="white"/>
<path d="M130.846 64.1514L130.277 62.8831H129.709V64.1514H129.277V61.1114H130.562C130.846 61.1114 131.414 61.4986 131.414 62.0021C131.414 62.5055 131.13 62.7572 130.846 62.8831L131.414 64.1514H130.846ZM130.277 61.4986H129.709V62.5055H130.277C130.846 62.5055 130.846 62.3797 130.846 62.0021C130.846 61.7407 130.846 61.4986 130.277 61.4986Z" fill="white"/>
<path d="M92.6107 78.8679C92.6107 82.4113 95.4635 85.3255 99.1692 85.3255C102.591 85.3255 105.718 82.4113 105.718 78.8679C105.718 75.4504 102.591 72.4104 99.1692 72.4104C95.4635 72.4104 92.6107 75.4504 92.6107 78.8679ZM98.8751 90.5244C92.3264 90.5244 87.1992 85.3255 87.1992 78.8679C87.1992 72.4104 92.3264 67.3373 98.8751 67.3373C101.444 67.3373 103.728 67.9763 105.718 69.3607V67.589H111.139V90.0113H105.718V88.6172C103.728 89.8854 101.444 90.5244 98.8751 90.5244Z" fill="white"/>
<path d="M66.4076 78.8679C66.4076 82.4113 69.5447 85.3255 72.9661 85.3255C76.6718 85.3255 79.5246 82.4113 79.5246 78.8679C79.5246 75.4504 76.6718 72.4104 72.9661 72.4104C69.5447 72.4104 66.4076 75.4504 66.4076 78.8679ZM79.5246 59.8632H85.2204V90.0113H79.5246V88.6172C77.809 89.8854 75.5248 90.5244 72.9661 90.5244C66.4076 90.5244 60.9961 85.3255 60.9961 78.8679C60.9961 72.4104 66.4076 67.3373 72.9661 67.3373C75.5248 67.3373 77.809 67.9763 79.5246 69.3607V59.8632Z" fill="white"/>
</svg>
