<svg width="92" height="107" viewBox="0 0 92 107" fill="none" xmlns="http://www.w3.org/2000/svg">
<path d="M46.3924 51.2799V29.5779C70.8877 29.5779 86.13 34.3316 90.6891 36.7085C90.6619 42.9091 90.0561 49.0063 89.7566 51.2799C87.1454 74.346 59.8628 97.3708 46.5479 106C13.2243 84.174 3.33916 58.8756 2.56202 48.9547C0.763887 32.9499 0.880238 15.5202 1.16318 8.80594C38.8387 -5.33137 76.7525 2.91539 91 8.80594L90.6891 31.438C61.4689 21.8891 35.4089 24.1524 26.1869 26.4776L26.8054 45.2302C26.9109 48.4271 27.2682 51.6442 28.4569 54.6137C32.8781 65.6588 41.5982 71.8611 46.5479 75.1521C56.8061 69.8816 61.5725 62.1826 62.7123 59.0306C63.2304 57.8938 63.9868 55.1862 62.8677 53.4501C61.7486 51.7139 58.2567 51.2799 56.6506 51.2799H46.3924Z" fill="white"/>
<path d="M46.3924 29.5779V29.0779H45.8924V29.5779H46.3924ZM46.3924 51.2799H45.8924V51.7799H46.3924V51.2799ZM62.8677 53.4501L63.288 53.1792V53.1792L62.8677 53.4501ZM62.7123 59.0306L62.2573 58.8232L62.2489 58.8416L62.2421 58.8606L62.7123 59.0306ZM46.5479 75.1521L46.271 75.5685L46.5154 75.7309L46.7764 75.5969L46.5479 75.1521ZM28.4569 54.6137L28.9211 54.4279L28.4569 54.6137ZM26.8054 45.2302L27.3052 45.2138L26.8054 45.2302ZM26.1869 26.4776L26.0647 25.9928L25.6739 26.0913L25.6872 26.4941L26.1869 26.4776ZM90.6891 31.438L90.5338 31.9133L91.1798 32.1244L91.1891 31.4449L90.6891 31.438ZM91 8.80594L91.5 8.8128L91.5046 8.47352L91.191 8.34387L91 8.80594ZM1.16318 8.80594L0.98752 8.33781L0.677562 8.45412L0.663623 8.78489L1.16318 8.80594ZM2.56202 48.9547L3.0605 48.9156L3.05984 48.9072L3.0589 48.8988L2.56202 48.9547ZM46.5479 106L46.2739 106.418L46.5464 106.597L46.8198 106.42L46.5479 106ZM89.7566 51.2799L89.2608 51.2146L89.2598 51.2236L89.7566 51.2799ZM90.6891 36.7085L91.1891 36.7107L91.1905 36.406L90.9203 36.2652L90.6891 36.7085ZM45.8924 29.5779V51.2799H46.8924V29.5779H45.8924ZM46.3924 51.7799H56.6506V50.7799H46.3924V51.7799ZM56.6506 51.7799C57.4189 51.7799 58.6488 51.8848 59.8123 52.1968C61.0021 52.516 61.9944 53.0182 62.4474 53.721L63.288 53.1792C62.6219 52.1458 61.3087 51.5629 60.0713 51.231C58.8076 50.892 57.4884 50.7799 56.6506 50.7799V51.7799ZM62.4474 53.721C62.9174 54.4501 63.0153 55.4254 62.9069 56.4104C62.7995 57.3869 62.4973 58.2966 62.2573 58.8232L63.1673 59.238C63.4453 58.6278 63.7804 57.6154 63.9009 56.5198C64.0205 55.4328 63.9371 54.1863 63.288 53.1792L62.4474 53.721ZM62.2421 58.8606C61.1451 61.8942 56.4647 69.4949 46.3194 74.7074L46.7764 75.5969C57.1474 70.2684 61.9999 62.471 63.1825 59.2006L62.2421 58.8606ZM46.8247 74.7358C41.8887 71.4538 33.2821 65.3227 28.9211 54.4279L27.9927 54.7995C32.474 65.9948 41.3077 72.2684 46.271 75.5685L46.8247 74.7358ZM27.3052 45.2138L26.6867 26.4611L25.6872 26.4941L26.3057 45.2467L27.3052 45.2138ZM26.3092 26.9624C35.4428 24.6595 61.4064 22.3947 90.5338 31.9133L90.8445 30.9628C61.5314 21.3835 35.3751 23.6453 26.0647 25.9928L26.3092 26.9624ZM91.1891 31.4449L91.5 8.8128L90.5 8.79907L90.1892 31.4312L91.1891 31.4449ZM91.191 8.34387C76.8602 2.41885 38.8118 -5.85532 0.98752 8.33781L1.33884 9.27407C38.8656 -4.80741 76.6449 3.41194 90.809 9.268L91.191 8.34387ZM2.06355 48.9937C2.85525 59.1006 12.8499 84.5265 46.2739 106.418L46.8218 105.582C13.5987 83.8215 3.82306 58.6506 3.0605 48.9156L2.06355 48.9937ZM46.8198 106.42C53.5083 102.085 63.6921 94.1442 72.5365 84.3897C81.37 74.6472 88.9299 63.0273 90.2534 51.3361L89.2598 51.2236C87.9721 62.5986 80.5851 74.0241 71.7957 83.718C63.0173 93.3997 52.9024 101.286 46.2759 105.58L46.8198 106.42ZM90.2523 51.3452C90.5539 49.0553 91.1618 42.9366 91.1891 36.7107L90.1892 36.7063C90.162 42.8816 89.5582 48.9574 89.2609 51.2146L90.2523 51.3452ZM90.9203 36.2652C86.2657 33.8386 70.9359 29.0779 46.3924 29.0779V30.0779C70.8396 30.0779 85.9942 34.8247 90.458 37.1519L90.9203 36.2652ZM0.663623 8.78489C0.379984 15.5157 0.263282 32.9725 2.06515 49.0105L3.0589 48.8988C1.26449 32.9273 1.38049 15.5247 1.66274 8.82699L0.663623 8.78489ZM28.9211 54.4279C27.7646 51.5387 27.4099 48.3901 27.3052 45.2138L26.3057 45.2467C26.4118 48.4641 26.7719 51.7497 27.9927 54.7995L28.9211 54.4279Z" fill="white"/>
</svg>
