<svg width="15" height="17" viewBox="0 0 15 17" fill="none" xmlns="http://www.w3.org/2000/svg">
<mask id="path-1-inside-1" fill="white">
<path d="M7.56541 8.14055V4.62689C11.648 4.62689 14.1883 5.39655 14.9482 5.78138C14.9436 6.78529 14.8427 7.77246 14.7928 8.14055C14.3576 11.8751 9.81046 15.6029 7.59131 17C2.03739 13.4663 0.38986 9.37033 0.260337 7.76409C-0.0393521 5.17284 -0.0199604 2.35089 0.0271966 1.26382C6.30645 -1.02508 12.6254 0.310111 15 1.26382L14.9482 4.92806C10.0781 3.38205 5.73482 3.74848 4.19782 4.12494C4.2839 6.66017 4.44857 9.43595 6.36303 11.1002C6.81609 11.494 7.2557 11.7888 7.59131 12.0056C9.30101 11.1523 10.0954 9.90575 10.2854 9.39543C10.3717 9.21138 10.4978 8.77301 10.3113 8.49192C10.1248 8.21083 9.54278 8.14055 9.27511 8.14055H7.56541Z"/>
</mask>
<path d="M7.56541 8.14055V4.62689C11.648 4.62689 14.1883 5.39655 14.9482 5.78138C14.9436 6.78529 14.8427 7.77246 14.7928 8.14055C14.3576 11.8751 9.81046 15.6029 7.59131 17C2.03739 13.4663 0.38986 9.37033 0.260337 7.76409C-0.0393521 5.17284 -0.0199604 2.35089 0.0271966 1.26382C6.30645 -1.02508 12.6254 0.310111 15 1.26382L14.9482 4.92806C10.0781 3.38205 5.73482 3.74848 4.19782 4.12494C4.2839 6.66017 4.44857 9.43595 6.36303 11.1002C6.81609 11.494 7.2557 11.7888 7.59131 12.0056C9.30101 11.1523 10.0954 9.90575 10.2854 9.39543C10.3717 9.21138 10.4978 8.77301 10.3113 8.49192C10.1248 8.21083 9.54278 8.14055 9.27511 8.14055H7.56541Z" fill="#F00000"/>
<path d="M7.56541 4.62689V3.62689H6.56541V4.62689H7.56541ZM7.56541 8.14055H6.56541V9.14055H7.56541V8.14055ZM10.3113 8.49192L11.1445 7.93903L11.1445 7.93903L10.3113 8.49192ZM10.2854 9.39543L9.38006 8.97069L9.36257 9.00797L9.34821 9.04657L10.2854 9.39543ZM7.59131 12.0056L7.04875 12.8456L7.52771 13.155L8.03788 12.9003L7.59131 12.0056ZM6.36303 11.1002L7.01909 10.3455L7.01909 10.3455L6.36303 11.1002ZM4.19782 4.12494L3.95992 3.15365L3.17083 3.34693L3.1984 4.15887L4.19782 4.12494ZM14.9482 4.92806L14.6456 5.88119L15.9291 6.28862L15.9481 4.9422L14.9482 4.92806ZM15 1.26382L15.9999 1.27796L16.0096 0.591667L15.3727 0.335865L15 1.26382ZM0.0271966 1.26382L-0.315278 0.324291L-0.942912 0.553075L-0.971864 1.22048L0.0271966 1.26382ZM0.260337 7.76409L1.2571 7.68371L1.25571 7.66643L1.25372 7.6492L0.260337 7.76409ZM7.59131 17L7.0545 17.8437L7.58848 18.1835L8.12409 17.8463L7.59131 17ZM14.7928 8.14055L13.8018 8.00618L13.8006 8.01548L13.7995 8.0248L14.7928 8.14055ZM14.9482 5.78138L15.9482 5.78591L15.951 5.16831L15.4 4.88927L14.9482 5.78138ZM6.56541 4.62689V8.14055H8.56541V4.62689H6.56541ZM7.56541 9.14055H9.27511V7.14055H7.56541V9.14055ZM9.27511 9.14055C9.30181 9.14055 9.35005 9.14252 9.40903 9.14933C9.4679 9.15612 9.52441 9.16625 9.57149 9.17851C9.62185 9.19164 9.63871 9.20133 9.63134 9.19733C9.62778 9.1954 9.55098 9.15475 9.47803 9.04481L11.1445 7.93903C10.8342 7.47126 10.32 7.30677 10.0758 7.24314C9.77569 7.16494 9.47637 7.14055 9.27511 7.14055V9.14055ZM9.47803 9.0448C9.42883 8.97065 9.41428 8.90721 9.41008 8.88032C9.40611 8.85494 9.40908 8.84922 9.40701 8.86753C9.4051 8.88436 9.40046 8.90774 9.39292 8.93328C9.38514 8.95969 9.37859 8.97384 9.38006 8.97069L11.1907 9.82017C11.2736 9.64355 11.3614 9.38285 11.3943 9.0926C11.4253 8.81852 11.4245 8.36098 11.1445 7.93903L9.47803 9.0448ZM9.34821 9.04657C9.24827 9.31504 8.63175 10.3687 7.14474 11.1108L8.03788 12.9003C9.97027 11.9359 10.9426 10.4965 11.2226 9.7443L9.34821 9.04657ZM8.13388 11.1656C7.81131 10.9572 7.41848 10.6927 7.01909 10.3455L5.70696 11.8549C6.2137 12.2954 6.70009 12.6204 7.04875 12.8456L8.13388 11.1656ZM4.43572 5.09623C5.80065 4.76192 9.95675 4.3927 14.6456 5.88119L15.2508 3.97494C10.1995 2.37141 5.669 2.73504 3.95992 3.15365L4.43572 5.09623ZM15.9481 4.9422L15.9999 1.27796L14.0001 1.24968L13.9483 4.91393L15.9481 4.9422ZM15.3727 0.335865C12.8345 -0.683536 6.25414 -2.07038 -0.315278 0.324291L0.369671 2.20335C6.35876 0.0202195 12.4163 1.30376 14.6273 2.19177L15.3727 0.335865ZM-0.736427 7.84447C-0.575984 9.83417 1.30258 14.184 7.0545 17.8437L8.12813 16.1563C2.77219 12.7485 1.3557 8.9065 1.2571 7.68371L-0.736427 7.84447ZM8.12409 17.8463C9.29537 17.1089 11.0564 15.7745 12.5921 14.1291C14.1036 12.5097 15.5307 10.4476 15.786 8.2563L13.7995 8.0248C13.6197 9.56799 12.5556 11.2371 11.13 12.7645C9.72853 14.266 8.10641 15.494 7.05854 16.1537L8.12409 17.8463ZM15.7837 8.27493C15.8382 7.87329 15.9434 6.84188 15.9482 5.78591L13.9482 5.77686C13.9439 6.72869 13.8472 7.67162 13.8018 8.00618L15.7837 8.27493ZM15.4 4.88927C14.4524 4.40935 11.7409 3.62689 7.56541 3.62689V5.62689C11.555 5.62689 13.9243 6.38375 14.4964 6.6735L15.4 4.88927ZM-0.971864 1.22048C-1.0205 2.34161 -1.04063 5.21939 -0.733041 7.87898L1.25372 7.6492C0.96193 5.12629 0.980578 2.36016 1.02626 1.30716L-0.971864 1.22048ZM7.01909 10.3455C6.27068 9.69489 5.82886 8.80103 5.5674 7.70679C5.30261 6.59859 5.24052 5.36563 5.19725 4.09101L3.1984 4.15887C3.2412 5.41949 3.30448 6.84203 3.62216 8.17158C3.94318 9.5151 4.54092 10.8412 5.70696 11.8549L7.01909 10.3455Z" fill="#F00000" mask="url(#path-1-inside-1)"/>
</svg>
