<svg width="261" height="91" viewBox="0 0 261 91" fill="none" xmlns="http://www.w3.org/2000/svg">
<path d="M134.26 53.2912L134.665 57.6874H137.074L141.435 52.3153L138.797 34.748H130.647L117.555 57.6874H125.538L127.771 53.2912H134.26ZM133.803 47.6905H130.532L133.399 41.9754L133.803 47.6905Z" fill="white"/>
<path fill-rule="evenodd" clip-rule="evenodd" d="M56.4907 1.88256L70.4354 14.359C75.2009 18.5793 79.1047 22.0963 83.8702 26.3167C86.4552 28.6291 87.6598 31.8647 87.0795 34.7486L83.2987 53.1774C82.0326 59.4728 80.9951 64.5636 79.6763 70.859C78.9289 74.2616 76.7484 76.9257 74.0579 77.8489L56.3236 83.7926C50.292 85.8148 45.3595 87.4942 39.3279 89.5164C38.2992 89.8593 37.2617 90.0352 36.2857 90.0352C36.9803 86.0522 37.7804 81.2516 38.0706 80.4427C38.352 79.2909 43.9791 71.958 44.9023 70.7974C46.5025 68.7224 48.2258 66.8145 50.0107 65.0208C51.7867 63.1129 53.3342 61.2049 55.0575 59.1914C58.3283 55.2612 61.6606 50.698 63.7796 45.8973C64.5885 44.2268 65.6787 41.8528 66.6547 40.2966C67.0504 39.6635 67.6834 39.1975 67.745 38.5029C67.3933 38.16 67.2262 38.0985 66.9976 37.8171C67.5691 35.619 69.2309 34.6958 70.2684 32.9637C70.7256 31.979 70.9014 30.4755 71.2971 29.8424C71.8774 29.0335 72.7303 28.5148 73.3633 27.7586C73.3633 26.7827 73.249 27.1256 72.9676 26.6068C72.5632 25.9122 73.0204 26.0265 73.0819 25.3319C72.7918 24.8132 72.3346 24.2944 71.9301 23.8372C71.3586 23.3097 70.9014 23.0283 69.9782 23.1426C69.0638 23.1954 66.1359 23.6613 65.6172 24.0042C64.5269 24.7604 64.3511 27.1871 64.2368 28.8049C64.1225 30.9942 65.2127 31.1085 63.6653 33.4825L58.8998 40.2438C58.3898 40.9296 54.1959 44.684 53.1056 45.616L50.292 48.4999C47.5928 51.2695 47.8829 50.5221 44.6649 54.2237L41.7458 56.8175C39.7324 58.4353 37.0946 60.0003 34.3338 60.3433C33.5337 60.4576 32.8479 60.396 32.039 60.5719C31.0631 60.862 30.9488 61.1522 30.2014 61.4951C29.2342 61.9611 28.9968 61.6709 28.0209 61.8468C27.168 61.9611 26.4734 62.3655 25.6118 62.0138C25.3832 60.7477 26.2448 58.321 26.6493 57.2219C26.9922 57.3362 27.7923 58.4968 29.0584 55.6041C29.287 55.0238 29.4628 54.2765 29.3485 53.6434C29.0584 52.8345 28.6539 52.9488 28.1967 52.4301C28.1967 50.6364 28.311 48.4999 28.4253 46.7062C28.5396 45.6687 28.0209 44.2795 27.4494 43.4706C26.6493 42.3804 27.3966 42.2045 26.3591 41.5715C25.0403 40.8769 24.6974 39.9537 24.0115 39.3118C23.7742 39.0305 23.3785 38.9074 23.1499 38.6788C22.6311 38.0457 23.2642 38.4502 22.4025 37.8699C21.7079 37.4654 21.0221 37.0082 20.1605 37.1225C19.4747 37.1753 19.4747 37.3511 19.1318 37.4654C18.6658 37.6413 18.3844 37.5797 17.9272 37.694C17.0655 37.8699 15.4565 39.0832 15.1136 39.2591C13.8475 39.9537 13.7332 39.0832 12.7045 41.3341C12.0099 42.4947 10.8054 44.3411 10.6911 45.783C10.5768 46.8293 10.524 47.5151 10.4009 48.4999C10.4625 49.0802 10.3482 51.2167 10.2866 51.5069L9.3722 51.6739C8.45779 54.1622 9.66235 55.4898 10.3482 56.6416C10.8669 56.6416 10.6383 56.5889 10.6911 56.5889C10.9812 56.5273 10.8054 56.4746 11.0955 56.4746C11.667 57.1692 11.5 57.855 11.7813 58.7254C12.0715 59.763 12.3528 60.1674 11.7813 61.328C10.6383 63.6932 11.6143 63.3503 7.53458 62.9986C5.81127 62.8227 3.97366 62.5941 2.19759 62.5941C0.42153 60.4576 -0.325824 57.7407 0.131381 55.3755L3.92091 36.9467C5.17822 30.6513 6.27727 25.5693 7.53458 19.2739C8.28194 15.8625 10.4625 13.2072 13.1617 12.284L30.896 6.33152C36.9188 4.30927 41.8601 2.62992 47.8829 0.607665C50.9251 -0.544141 54.3102 -0.0253879 56.4907 1.88256Z" fill="white"/>
<path d="M110.668 45.4396L108.145 57.6874H115.434L120.252 34.748H113.42L105.331 42.9514L100.741 34.748H94.5428L89.7246 57.6874H97.0663L99.6512 45.4396L103.669 52.4296L110.668 45.4396Z" fill="white"/>
<path d="M153.947 50.4601L156.303 57.6874H163.988L159.345 45.7825L168.12 34.748H159.855L155.327 40.9907L153.375 34.748H145.682L149.928 45.7298L140.23 57.6874H148.495L153.947 50.4601Z" fill="white"/>
<path d="M166 57.6874H173.342L178.169 34.748H170.818L166 57.6874Z" fill="white"/>
<path d="M197.794 45.4396L195.271 57.6874H202.56L207.378 34.748H200.546L192.457 42.9514L187.867 34.748H181.669L176.842 57.6874H184.192L186.716 45.4396L190.848 52.4296L197.794 45.4396Z" fill="white"/>
<path d="M217.884 51.7965C217.075 51.7965 216.389 51.5064 215.87 50.9261C215.299 50.3458 215.009 49.6512 215.009 48.7895C215.009 48.5609 215.07 48.2708 215.123 48.0334L217.937 34.748H210.595L207.781 48.0334C207.667 48.6752 207.553 49.3083 207.553 50.0556C207.553 52.4823 208.467 54.4518 210.19 56.0081C211.967 57.5731 214.261 58.3205 217.075 58.3205C220.293 58.3205 222.992 57.3357 225.111 55.4893C227.239 53.5814 228.611 51.1019 229.244 48.0334L232.057 34.748H224.768L221.955 48.0334C221.726 49.0797 221.207 50.0029 220.46 50.6975C219.66 51.4448 218.798 51.7965 217.884 51.7965Z" fill="white"/>
<path d="M251.338 45.4396L248.762 57.6874H256.104L260.922 34.748H254.099L246.001 42.9514L241.411 34.748H235.213L230.395 57.6874H237.736L240.26 45.4396L244.339 52.4296L251.338 45.4396Z" fill="white"/>
<path d="M88.9168 69.4086L89.2597 67.7381H92.3018L92.6535 66.2961H89.6114L89.9543 64.7926H93.8581L94.1394 63.3507H88.5739L86.9648 70.9121H92.592L92.8821 69.4702H88.9168V69.4086ZM95.9243 63.2891L94.3153 70.8594H97.3575C98.562 70.8594 99.6523 70.4549 100.567 69.5845C101.49 68.7228 101.886 67.6765 101.886 66.4632C101.886 65.6015 101.543 64.8454 100.918 64.2123C100.285 63.5793 99.4764 63.2891 98.5005 63.2891H95.9243ZM98.3862 64.7311C98.9049 64.7311 99.3621 64.9069 99.705 65.2498C100.057 65.6015 100.224 66.0587 100.224 66.5863C100.224 67.3336 99.9424 67.9667 99.3621 68.547C98.7906 69.1273 98.1576 69.3559 97.4102 69.3559H96.2057L97.1816 64.6783H98.3862V64.7311ZM106.255 69.5317C105.851 69.5317 105.508 69.4086 105.279 69.1273C104.989 68.8371 104.875 68.547 104.875 68.1425C104.875 68.0282 104.875 67.8524 104.928 67.7381L105.851 63.2276H104.242L103.328 67.7381C103.266 67.9667 103.266 68.1425 103.266 68.3711C103.266 69.1273 103.556 69.7603 104.128 70.2791C104.699 70.7978 105.394 71.0264 106.255 71.0264C107.17 71.0264 107.97 70.7451 108.664 70.1032C109.35 69.5317 109.755 68.7228 109.983 67.7908L110.959 63.2891H109.35L108.436 67.7908C108.322 68.3184 108.084 68.7228 107.689 69.0657C107.108 69.4086 106.713 69.5317 106.255 69.5317ZM116.235 63.1133C114.916 63.1133 113.826 63.5793 112.911 64.4409C111.988 65.3114 111.531 66.4104 111.531 67.6238C111.531 68.547 111.874 69.2943 112.568 69.9889C113.254 70.6835 114.116 70.9737 115.092 70.9737C115.496 70.9737 115.892 70.9121 116.235 70.7978C116.586 70.6835 116.929 70.5692 117.158 70.4549C117.387 70.3406 117.615 70.1648 117.844 69.9889C118.072 69.8131 118.187 69.6988 118.248 69.646C118.301 69.5845 118.363 69.5317 118.363 69.4702L117.554 68.3711L117.439 68.4854C117.387 68.547 117.272 68.6613 117.158 68.7756C117.044 68.8899 116.868 69.0042 116.701 69.1273C116.525 69.2416 116.296 69.2943 116.006 69.4086C115.725 69.4702 115.496 69.5317 115.206 69.5317C114.635 69.5317 114.116 69.3559 113.711 68.9514C113.307 68.547 113.14 68.081 113.14 67.5095C113.14 66.7006 113.43 66.006 114.054 65.4257C114.635 64.8454 115.373 64.564 116.182 64.564C116.463 64.564 116.701 64.6168 116.929 64.6783C117.158 64.7311 117.325 64.8454 117.501 64.9069C117.615 64.9685 117.791 65.0828 117.905 65.1971C118.02 65.3114 118.072 65.3729 118.134 65.4257C118.187 65.4872 118.187 65.4872 118.187 65.54L119.391 64.564L119.277 64.3882C119.224 64.2739 119.11 64.1596 118.934 64.0365C118.767 63.8694 118.591 63.7551 118.363 63.5793C118.134 63.465 117.844 63.2891 117.501 63.1748C117.044 63.1748 116.639 63.1133 116.235 63.1133ZM124.104 67.6765H122.266L123.7 65.1971L124.104 67.6765ZM124.333 69.0657L124.614 70.8594H126.284L124.904 63.2891H123.181L118.653 70.8594H120.429L121.457 69.0657H124.333ZM128.351 63.2891L128.061 64.7311H130.188L128.922 70.8594H130.531L131.789 64.7311H133.969L134.259 63.2891H128.351ZM134.031 70.8594H135.64L137.24 63.2891H135.64L134.031 70.8594ZM142.462 64.564C143.096 64.564 143.614 64.7311 144.072 65.1971C144.476 65.6015 144.705 66.1203 144.705 66.7533C144.705 67.5095 144.414 68.1953 143.843 68.7228C143.271 69.2943 142.638 69.5317 141.953 69.5317C141.319 69.5317 140.748 69.3559 140.344 68.8899C139.939 68.4854 139.71 67.9667 139.71 67.3336C139.71 66.5863 140.001 65.9444 140.572 65.3729C141.091 64.8454 141.724 64.564 142.462 64.564ZM137.987 67.4479C137.987 68.4327 138.33 69.2943 139.077 69.9889C139.825 70.6835 140.686 71.0264 141.838 71.0264C142.638 71.0264 143.386 70.8594 144.072 70.4549C144.766 70.0505 145.338 69.5317 145.742 68.8371C146.138 68.1425 146.366 67.4479 146.366 66.639C146.366 65.6543 146.023 64.8454 145.338 64.1596C144.652 63.465 143.729 63.1133 142.638 63.1133C141.434 63.1133 140.396 63.5793 139.482 64.4409C138.453 65.3114 137.987 66.3489 137.987 67.4479ZM153.831 63.2891L152.794 68.1425L150.042 63.2891H148.723L147.114 70.8594H148.723L149.751 66.006L152.512 70.8594H153.831L155.44 63.2891H153.831Z" fill="white"/>
</svg>
