<svg width="50" height="39" viewBox="0 0 50 39" fill="none" xmlns="http://www.w3.org/2000/svg">
<path d="M15.3239 4.17689L16.531 2.89195C17.6651 1.68472 19.2477 1 20.9041 1H28.9416C30.4571 1 31.9166 1.57356 33.0266 2.60544L35.1281 4.55889C36.6081 5.93473 38.5541 6.69948 40.5748 6.69948H43C46.3137 6.69948 49 9.38577 49 12.6995V31.342C49 34.6557 46.3137 37.342 43 37.342H7C3.68629 37.342 1 34.6557 1 31.342V12.6995C1 9.38578 3.68629 6.69948 7 6.69948H9.49315C11.7016 6.69948 13.8118 5.78653 15.3239 4.17689Z" stroke="#F00000" stroke-width="2"/>
<circle cx="25.0443" cy="22.4525" r="9.36269" stroke="#F00000" stroke-width="2"/>
</svg>
