<svg width="42" height="42" viewBox="0 0 42 42" fill="none" xmlns="http://www.w3.org/2000/svg">
<path d="M41.5 21C41.5 32.3218 32.3218 41.5 21 41.5C9.67816 41.5 0.5 32.3218 0.5 21C0.5 9.67816 9.67816 0.5 21 0.5C32.3218 0.5 41.5 9.67816 41.5 21Z" stroke="#72767E"/>
<path d="M8.74065 20.8176L22.8823 14.991C24.2782 14.3841 29.0123 12.4419 29.0123 12.4419C29.0123 12.4419 31.1973 11.5921 31.0152 13.6557C30.9545 14.5054 30.469 17.4794 29.9834 20.6962L28.4661 30.2251C28.4661 30.2251 28.3447 31.621 27.3129 31.8638C26.2811 32.1066 24.5817 31.0141 24.2782 30.7713C24.0354 30.5893 19.7262 27.858 18.1482 26.5228C17.7233 26.1586 17.2378 25.4303 18.2089 24.5806C20.3938 22.5777 23.0037 20.0893 24.5817 18.5112C25.31 17.7829 26.0383 16.0835 23.0037 18.1471L14.4458 23.913C14.4458 23.913 13.4748 24.5199 11.6539 23.9736C9.83313 23.4274 7.70885 22.6991 7.70885 22.6991C7.70885 22.6991 6.25221 21.7887 8.74065 20.8176Z" fill="#72767E"/>
</svg>
