<svg width="28" height="26" viewBox="0 0 28 26" fill="none" xmlns="http://www.w3.org/2000/svg">
<path fill-rule="evenodd" clip-rule="evenodd" d="M0.240459 0.0834509C0.146146 0.360441 0 0.905475 0 0.980181C0 1.03753 0.0901464 1.06817 0.258829 1.06817C0.401151 1.06817 0.695493 1.11344 0.912937 1.16885C2.29941 1.52188 2.91159 2.17066 4.69212 5.17396C5.10577 5.8716 5.77565 6.99819 6.18083 7.67748C6.58601 8.35677 7.08632 9.19796 7.29263 9.54678C7.49895 9.89561 7.92045 10.6016 8.22934 11.1157C9.23297 12.7859 11.5599 16.6995 12.0202 17.4913C12.5838 18.4608 12.8164 19.3428 12.6904 20.0323C12.4683 21.2478 11.0699 22.116 8.92319 22.3712C8.00267 22.4805 6.82374 22.3164 5.78623 21.9343C5.53184 21.8406 5.31085 21.764 5.29514 21.764C5.22337 21.764 4.6439 22.5674 4.6439 22.6669C4.6439 22.8579 5.08856 23.7929 5.37634 24.2068C5.67307 24.6337 6.24755 25.2092 6.6317 25.4643C6.76378 25.5521 7.06966 25.7092 7.31155 25.8136C7.72035 25.9899 7.81118 26.003 8.60488 25.9996C9.34879 25.9962 9.53318 25.9718 10.039 25.8094C11.0424 25.4872 11.7482 25.0296 12.6378 24.1246C13.762 22.9809 14.1363 22.3879 16.8837 17.3982L17.8723 15.6028L17.6197 15.1951C17.4807 14.971 17.1363 14.3969 16.8542 13.9196C16.5721 13.4423 16.0723 12.6011 15.7435 12.0503C14.993 10.793 14.5384 10.0296 14.0339 9.1796C13.816 8.81241 13.5542 8.3768 13.4522 8.21157C12.2559 6.2729 10.206 2.72297 10.1536 2.49919C10.0961 2.25364 10.1094 2.17079 10.2509 1.89186C10.3863 1.62469 10.487 1.53149 10.8331 1.35251C11.0632 1.23354 11.4133 1.11337 11.6111 1.08546L11.9706 1.03479L12.1233 0.517396L12.2761 0H6.27248C1.5303 0 0.262927 0.0175581 0.240459 0.0834509ZM19.301 0.431007C19.1363 1.07198 19.1174 1.043 19.7336 1.09327C20.4089 1.14835 21.3628 1.41359 21.8346 1.6775C22.2397 1.90402 22.5792 2.2706 22.6417 2.54886L22.684 2.73719H23.7669H24.8498L25.1275 2.35024C25.6246 1.65733 26.4745 1.18407 27.3893 1.0906L27.791 1.04955L27.8955 0.698117C27.9529 0.504778 28 0.268645 28 0.173311V0H23.7059H19.4117L19.301 0.431007Z" fill="white"/>
</svg>
