<svg width="97" height="90" viewBox="0 0 97 90" fill="none" xmlns="http://www.w3.org/2000/svg">
<path fill-rule="evenodd" clip-rule="evenodd" d="M0.833017 0.288868C0.506293 1.24768 0 3.13434 0 3.39293C0 3.59144 0.312293 3.69752 0.896659 3.69752C1.3897 3.69752 2.40939 3.8542 3.16267 4.04601C7.96583 5.26804 10.0866 7.51382 16.2548 17.9098C17.6878 20.3248 20.0085 24.2245 21.4122 26.5759C22.8158 28.9273 24.549 31.8391 25.2638 33.0466C25.9785 34.254 27.4387 36.6979 28.5088 38.4773C31.9856 44.259 40.0468 57.8058 41.6414 60.5468C43.5939 63.9028 44.3997 66.9558 43.9632 69.3425C43.1939 73.5501 38.3493 76.5555 30.9125 77.4387C27.7235 77.8172 23.6394 77.249 20.0452 75.9264C19.1639 75.6022 18.3983 75.3369 18.3439 75.3369C18.0952 75.3369 16.0878 78.1179 16.0878 78.4622C16.0878 79.1236 17.6282 82.3599 18.6252 83.7929C19.6531 85.2705 21.6433 87.2625 22.9741 88.1458C23.4316 88.4494 24.4913 88.9934 25.3293 89.3546C26.7455 89.9652 27.0602 90.0105 29.8098 89.9985C32.3869 89.9869 33.0257 89.9023 34.778 89.3401C38.254 88.2248 40.6991 86.6409 43.7808 83.5084C47.6755 79.5493 48.9722 77.4967 58.4898 60.2247L61.9146 54.0096L61.0395 52.5986C60.5583 51.8225 59.3649 49.8356 58.3876 48.1833C57.4105 46.5309 55.6789 43.6191 54.54 41.7126C51.9402 37.3604 50.3652 34.7178 48.6173 31.7755C47.8624 30.5045 46.9556 28.9966 46.6023 28.4247C42.4578 21.7139 35.3565 9.42566 35.175 8.65103C34.9758 7.80107 35.0217 7.51428 35.5119 6.54876C35.9811 5.62392 36.3298 5.30131 37.5288 4.68175C38.3261 4.26994 39.5389 3.85397 40.224 3.75737L41.4696 3.58197L41.9986 1.79098L42.5279 0H21.7297C5.3014 0 0.910854 0.0607779 0.833017 0.288868ZM66.8642 1.49195C66.2936 3.71069 66.228 3.61039 68.3628 3.78441C70.7021 3.97506 74.0067 4.8932 75.6413 5.80672C77.0447 6.59082 78.2208 7.85976 78.4373 8.82297L78.584 9.47489H82.3355H86.0868L87.0487 8.13546C88.7711 5.73693 91.7152 4.0987 94.8845 3.77516L96.2758 3.63304L96.638 2.41656C96.837 1.74731 97 0.929926 97 0.599922V0H82.124H67.2477L66.8642 1.49195Z" fill="white"/>
</svg>
