<svg width="42" height="42" viewBox="0 0 42 42" fill="none" xmlns="http://www.w3.org/2000/svg">
<path fill-rule="evenodd" clip-rule="evenodd" d="M14.6685 10.6162C14.4524 10.9546 14.7316 11.5553 15.2889 11.9503C16.5528 12.8472 17.1083 17.2242 16.2361 19.4147C15.2895 21.7924 13.9743 20.7702 11.0506 15.3831L8.59889 10.8663L5.15895 10.6907C3.26751 10.5937 1.46002 10.7664 1.1433 11.0736C0.348501 11.8446 2.93828 17.1653 6.96941 23.0427C11.6405 29.8528 15.8187 32.3217 21.8633 31.8435C24.0257 31.672 24.2334 31.5068 24.4019 29.8228C24.5025 28.8144 24.9848 27.6675 25.473 27.2742C26.2118 26.6793 26.8411 27.0177 29.2088 29.2799L32.0564 32L36.4661 31.8285C42.1262 31.6084 42.3185 30.8877 37.9426 26.3028C36.1244 24.3981 34.6372 22.5853 34.6372 22.274C34.6372 21.9627 35.9654 19.9628 37.589 17.8294C42.4601 11.4282 42.2768 10.6012 35.9851 10.5862L32.2731 10.5775L30.5144 13.9566C28.4706 17.8837 25.8349 21.1178 25.0574 20.6518C24.7597 20.4733 24.5162 18.4145 24.5162 16.0772C24.5162 9.95208 24.5561 10 19.4272 10C16.9767 10 14.8888 10.2703 14.6685 10.6162Z" fill="#72767E"/>
</svg>
