<svg width="42" height="42" viewBox="0 0 42 42" fill="none" xmlns="http://www.w3.org/2000/svg">
<path fill-rule="evenodd" clip-rule="evenodd" d="M7.16838 7.31586C3.74949 7.77234 3.21413 8.08067 1.97937 10.3024C1.18392 11.7347 1.00921 13.5525 1.00022 20.5183C0.987299 30.3182 1.53951 32.6089 4.26575 34.0548C5.82857 34.8836 7.92283 34.9984 21.4933 34.9984C42.6589 34.9984 41.9977 35.4565 41.9977 20.7917C41.9977 11.3444 41.4876 9.3047 38.762 7.85434C37.3446 7.09991 12.017 6.66858 7.16838 7.31586ZM28.4002 20.6998L17.4206 25.9573C17.4206 25.9573 17.3686 23.5112 17.3686 20.5044C17.3686 17.4976 17.3166 15.0515 17.3166 15.0515L28.4002 20.6998Z" fill="#72767E"/>
</svg>
