<svg width="35" height="35" viewBox="0 0 35 35" fill="none" xmlns="http://www.w3.org/2000/svg">
<circle cx="17.4995" cy="18.0258" r="7.95455" stroke="#72767E" stroke-width="1.5"/>
<circle cx="28.1046" cy="7.42001" r="1.09091" fill="#72767E" stroke="#72767E"/>
<path d="M32.6179 5.50821C32.91 5.94156 33.1553 6.33487 33.3433 6.83043C33.5308 7.32516 33.6523 7.89704 33.7338 8.68909C33.8952 10.2557 33.9091 12.79 33.9091 17.4955C33.9091 22.2011 33.8952 24.7354 33.7338 26.302C33.6523 27.0941 33.5308 27.6659 33.3433 28.1607C33.1553 28.6562 32.91 29.0495 32.6179 29.4829C32.6179 29.4829 32.6178 29.483 32.6178 29.4831L32.2032 29.2036C31.5403 30.1878 30.1923 31.5359 29.208 32.1987L32.6179 5.50821ZM32.6179 5.50821C31.9191 4.47059 30.5252 3.07669 29.4875 2.37778M32.6179 5.50821L29.4875 2.37778M29.4875 2.37778C29.0541 2.08559 28.6607 1.84023 28.1651 1.65229C27.6704 1.4647 27.0985 1.34328 26.3065 1.2617C24.7398 1.10035 22.2056 1.08646 17.5 1.08646C12.7944 1.08646 10.2602 1.10035 8.69354 1.2617C7.90149 1.34328 7.32961 1.4647 6.83488 1.65229C6.33932 1.8402 5.94601 2.08552 5.51266 2.37765C4.47504 3.07648 3.08114 4.47037 2.38223 5.50803L29.4875 2.37778ZM5.16976 1.78094L5.16978 1.78093C5.72124 1.4504 6.11584 1.22318 6.56158 1.05264C7.00164 0.884285 7.51122 0.764298 8.28289 0.681127C9.84991 0.512234 12.3998 0.502983 17.4536 0.500323C22.4981 0.497929 25.0497 0.505214 26.6249 0.672397C27.4008 0.754751 27.9169 0.874111 28.3649 1.0421C28.8183 1.21216 29.2216 1.43884 29.7814 1.76698L29.7814 1.767C31.0477 2.50912 32.4864 3.94786 33.2285 5.21412L33.6599 4.96131L33.2286 5.21414C33.5563 5.77336 33.783 6.17703 33.9531 6.6304C34.1212 7.07831 34.2407 7.59388 34.3234 8.36743C34.4913 9.93785 34.5 12.4781 34.5 17.4955C34.5 22.513 34.4913 25.0533 34.3234 26.6237C34.2407 27.3972 34.1212 27.9128 33.9531 28.3607C33.783 28.8141 33.5563 29.2177 33.2286 29.777L33.6599 30.0298L33.2285 29.777C32.4864 31.0432 31.0477 32.482 29.7814 33.2241L30.0342 33.6555L29.7814 33.2241C29.2222 33.5519 28.8185 33.7785 28.3651 33.9487C27.9172 34.1167 27.4017 34.2362 26.6281 34.3189C25.0577 34.4868 22.5174 34.4955 17.5 34.4955C12.4826 34.4955 9.9423 34.4868 8.37188 34.3189C7.59833 34.2362 7.08276 34.1167 6.63485 33.9487C6.18148 33.7785 5.77781 33.5519 5.21859 33.2241L4.96576 33.6555L5.21857 33.2241C3.95231 32.482 2.51357 31.0432 1.77145 29.777L1.77144 29.777C1.44367 29.2177 1.21702 28.8141 1.04689 28.3607C0.878817 27.9128 0.759301 27.3972 0.676609 26.6237C0.508729 25.0533 0.5 22.513 0.5 17.4955C0.5 12.4855 0.509119 9.94414 0.676368 8.37284C0.758769 7.59867 0.877766 7.08264 1.0449 6.63534C1.21397 6.18287 1.43912 5.78094 1.76453 5.22584L1.76457 5.22576C2.47599 4.01169 3.97161 2.49903 5.16976 1.78094ZM28.1651 33.3388C28.6607 33.1509 29.054 32.9056 29.4873 32.6134L2.3821 5.50821C2.08997 5.94156 1.84465 6.33487 1.65674 6.83043C1.46915 7.32516 1.34773 7.89704 1.26615 8.68909C1.1048 10.2557 1.09091 12.79 1.09091 17.4955C1.09091 22.2011 1.1048 24.7354 1.26615 26.302C1.34773 27.0941 1.46915 27.6659 1.65674 28.1607C1.84468 28.6563 2.09004 29.0496 2.38223 29.4831C3.0811 30.5207 4.47488 31.9144 5.51248 32.6133C5.9459 32.9055 6.33925 33.1509 6.83488 33.3388C7.32961 33.5264 7.90149 33.6478 8.69354 33.7294C10.2602 33.8908 12.7944 33.9046 17.5 33.9046C22.2056 33.9046 24.7398 33.8908 26.3065 33.7294C27.0985 33.6478 27.6704 33.5264 28.1651 33.3388Z" fill="#72767E" stroke="#72767E"/>
</svg>
