<svg width="423" height="494" viewBox="0 0 423 494" fill="none" xmlns="http://www.w3.org/2000/svg">
<path d="M213.336 236.597V134.908C327.919 134.908 399.219 157.183 420.546 168.32C420.418 197.374 417.585 225.944 416.184 236.597C403.969 344.678 276.347 452.566 214.063 493C58.1826 390.729 11.9421 272.189 8.3068 225.702C-0.104483 150.708 0.439778 69.0375 1.76332 37.5764C178.001 -28.667 355.353 9.97499 422 37.5764L420.546 143.624C283.86 98.8806 161.957 109.485 118.819 120.381L122.296 225.985C122.401 229.176 122.835 232.364 123.711 235.435C141.499 297.82 188.516 331.441 214.063 348.456C262.048 323.76 284.345 287.684 289.676 272.915C292.1 267.588 295.638 254.901 290.403 246.766C285.169 238.631 268.834 236.597 261.321 236.597H213.336Z" fill="#F00000"/>
<path d="M213.336 134.908V134.408H212.836V134.908H213.336ZM213.336 236.597H212.836V237.097H213.336V236.597ZM290.403 246.766L289.983 247.037L289.983 247.037L290.403 246.766ZM289.676 272.915L289.221 272.708L289.213 272.726L289.206 272.745L289.676 272.915ZM214.063 348.456L213.786 348.872L214.03 349.035L214.292 348.9L214.063 348.456ZM123.711 235.435L123.23 235.572L123.23 235.572L123.711 235.435ZM122.296 225.985L122.796 225.968L122.796 225.968L122.296 225.985ZM118.819 120.381L118.696 119.896L118.306 119.995L118.319 120.397L118.819 120.381ZM420.546 143.624L420.39 144.099L421.037 144.311L421.046 143.631L420.546 143.624ZM422 37.5764L422.5 37.5833L422.505 37.2442L422.191 37.1144L422 37.5764ZM1.76332 37.5764L1.5874 37.1084L1.27767 37.2248L1.26376 37.5554L1.76332 37.5764ZM8.3068 225.702L8.80528 225.663L8.80462 225.655L8.80368 225.646L8.3068 225.702ZM214.063 493L213.789 493.418L214.061 493.597L214.335 493.419L214.063 493ZM416.184 236.597L415.688 236.532L415.687 236.541L416.184 236.597ZM420.546 168.32L421.046 168.322L421.047 168.018L420.777 167.877L420.546 168.32ZM212.836 134.908V236.597H213.836V134.908H212.836ZM213.336 237.097H261.321V236.097H213.336V237.097ZM261.321 237.097C265.043 237.097 270.96 237.602 276.587 239.114C282.24 240.633 287.472 243.134 289.983 247.037L290.824 246.496C288.1 242.263 282.547 239.68 276.846 238.148C271.119 236.609 265.113 236.097 261.321 236.097V237.097ZM289.983 247.037C292.511 250.965 292.942 256.036 292.415 260.839C291.888 265.634 290.414 270.086 289.221 272.708L290.131 273.122C291.362 270.417 292.869 265.862 293.409 260.948C293.947 256.043 293.531 250.702 290.824 246.496L289.983 247.037ZM289.206 272.745C283.917 287.396 261.707 323.373 213.834 348.011L214.292 348.9C262.39 324.146 284.772 287.972 290.147 273.085L289.206 272.745ZM214.34 348.04C188.808 331.035 141.927 297.499 124.192 235.298L123.23 235.572C141.07 298.14 188.224 331.847 213.786 348.872L214.34 348.04ZM122.796 225.968L119.319 120.364L118.319 120.397L121.796 226.001L122.796 225.968ZM118.941 120.865C161.991 109.993 283.797 99.3862 420.39 144.099L420.701 143.149C283.923 98.375 161.923 108.978 118.696 119.896L118.941 120.865ZM421.046 143.631L422.5 37.5833L421.5 37.5695L420.046 143.617L421.046 143.631ZM422.191 37.1144C355.461 9.47846 177.974 -29.191 1.5874 37.1084L1.93924 38.0444C178.028 -28.143 355.246 10.4715 421.809 38.0383L422.191 37.1144ZM7.80832 225.741C11.4581 272.413 57.8079 391.082 213.789 493.418L214.337 492.582C58.5574 390.377 12.426 271.964 8.80528 225.663L7.80832 225.741ZM214.335 493.419C245.508 473.182 293.019 436.075 334.27 390.502C375.51 344.941 410.555 290.852 416.68 236.653L415.687 236.541C409.597 290.424 374.724 344.319 333.529 389.831C292.344 435.331 244.902 472.384 213.791 492.581L214.335 493.419ZM416.679 236.662C418.082 225.993 420.918 197.402 421.046 168.322L420.046 168.318C419.919 197.347 417.087 225.895 415.688 236.532L416.679 236.662ZM420.777 167.877C399.355 156.69 327.968 134.408 213.336 134.408V135.408C327.871 135.408 399.083 157.676 420.314 168.763L420.777 167.877ZM1.26376 37.5554C-0.0604745 69.033 -0.605086 150.731 7.80991 225.758L8.80368 225.646C0.396121 150.686 0.940031 69.042 2.26288 37.5974L1.26376 37.5554ZM124.192 235.298C123.329 232.272 122.9 229.126 122.796 225.968L121.796 226.001C121.903 229.227 122.342 232.455 123.23 235.572L124.192 235.298Z" fill="#F00000"/>
</svg>
