<?xml version="1.0" standalone="no"?>
<!DOCTYPE svg PUBLIC "-//W3C//DTD SVG 20010904//EN"
 "http://www.w3.org/TR/2001/REC-SVG-20010904/DTD/svg10.dtd">
<svg version="1.0" xmlns="http://www.w3.org/2000/svg"
 width="988.000000pt" height="988.000000pt" viewBox="0 0 988.000000 988.000000"
 preserveAspectRatio="xMidYMid meet">
<metadata>
Created by potrace 1.14, written by Peter Selinger 2001-2017
</metadata>
<g transform="translate(0.000000,988.000000) scale(0.100000,-0.100000)"
fill="#000000" stroke="none">
<path d="M4420 9861 c0 -3 -42 -6 -93 -7 -89 -1 -260 -10 -362 -19 -170 -15
-278 -24 -355 -30 -19 -2 -35 -4 -35 -5 0 -2 -40 -7 -120 -14 -39 -4 -80 -8
-92 -10 -12 -3 -49 -7 -82 -11 -33 -3 -70 -8 -82 -10 -12 -3 -59 -9 -103 -15
-45 -6 -92 -13 -106 -16 -14 -2 -41 -7 -60 -9 -19 -3 -46 -7 -60 -10 -14 -3
-36 -7 -50 -10 -83 -13 -108 -17 -130 -22 -14 -2 -36 -6 -50 -8 -14 -1 -25 -4
-25 -5 0 -2 -20 -6 -65 -14 -19 -4 -71 -14 -115 -23 -44 -9 -87 -17 -95 -18
-8 -1 -22 -5 -30 -8 -8 -2 -42 -10 -75 -17 -33 -6 -98 -21 -144 -32 -46 -11
-89 -21 -95 -23 -20 -4 -68 -16 -201 -52 -71 -19 -137 -36 -145 -38 -19 -5
-94 -27 -185 -54 -38 -12 -77 -23 -85 -25 -8 -2 -27 -9 -42 -15 -16 -6 -28 -8
-28 -5 0 4 -6 1 -13 -5 -8 -6 -22 -12 -33 -14 -10 -1 -25 -6 -31 -10 -7 -5
-13 -6 -13 -3 0 3 -17 -2 -37 -10 -20 -9 -44 -17 -52 -19 -9 -2 -40 -12 -68
-24 -29 -11 -53 -18 -53 -15 0 4 -6 2 -13 -3 -11 -9 -69 -31 -100 -37 -7 -2
-21 -7 -32 -11 -11 -5 -45 -18 -75 -30 l-55 -21 -3 -80 c-2 -43 -4 -180 -5
-304 -1 -136 -6 -228 -12 -232 -7 -5 -7 -8 0 -8 10 0 12 -61 2 -77 -3 -5 -2
-15 3 -23 4 -7 5 -23 1 -34 -4 -12 -5 -32 -1 -46 3 -14 3 -41 0 -61 -4 -21 -3
-43 1 -51 4 -8 4 -20 -1 -27 -4 -8 -4 -27 0 -42 5 -17 5 -31 -1 -34 -5 -4 -5
-13 0 -23 5 -9 5 -26 1 -37 -4 -11 -5 -27 -1 -35 9 -21 7 -163 -3 -178 -4 -6
-4 -12 1 -12 4 0 9 -71 9 -157 3 -265 21 -755 39 -1058 4 -60 8 -137 10 -170
3 -62 14 -239 20 -310 2 -22 6 -78 10 -125 3 -47 8 -104 9 -126 2 -23 5 -46 7
-50 3 -5 4 -33 4 -61 0 -29 2 -53 5 -53 3 0 6 -21 6 -48 2 -46 9 -121 19 -192
2 -19 7 -64 10 -100 12 -130 25 -219 45 -310 6 -25 12 -54 14 -65 4 -18 33
-137 40 -160 1 -5 8 -30 15 -55 28 -100 124 -373 177 -500 30 -74 61 -148 67
-165 7 -16 15 -32 18 -35 3 -3 11 -21 19 -40 8 -19 40 -88 72 -153 32 -65 58
-122 58 -127 0 -4 3 -10 8 -12 4 -1 21 -30 37 -63 45 -89 177 -319 188 -326 5
-3 9 -10 9 -15 1 -13 182 -303 207 -331 6 -7 11 -15 11 -18 0 -4 6 -13 13 -20
25 -29 37 -44 37 -49 0 -3 21 -35 47 -72 27 -36 61 -85 76 -107 16 -22 34 -46
40 -53 28 -31 37 -44 37 -50 0 -4 7 -14 15 -23 46 -51 55 -62 55 -67 0 -4 68
-92 125 -161 6 -7 15 -18 20 -25 33 -43 184 -221 264 -313 44 -49 61 -68 136
-148 19 -21 35 -44 35 -50 0 -5 3 -8 6 -4 3 3 28 -20 56 -51 86 -96 588 -588
588 -576 0 1 17 -14 38 -34 20 -20 69 -64 107 -97 39 -33 85 -75 104 -93 18
-17 36 -32 40 -32 3 0 29 -20 56 -45 66 -60 69 -62 140 -118 33 -27 76 -61 95
-77 19 -15 73 -58 120 -94 47 -37 93 -73 103 -81 9 -8 20 -15 22 -15 3 0 16
-9 28 -20 12 -11 60 -48 107 -83 47 -34 87 -65 88 -69 2 -5 10 -8 18 -8 8 0
14 -4 14 -10 0 -5 5 -10 11 -10 6 0 16 -6 23 -12 8 -7 24 -20 36 -28 12 -8 47
-33 78 -56 108 -77 361 -244 371 -244 5 0 11 3 13 8 2 4 50 38 108 76 58 38
107 73 108 78 2 4 10 8 17 8 7 0 15 3 17 8 2 4 23 20 48 37 25 16 52 35 60 42
8 7 78 59 155 115 77 57 147 108 155 115 8 7 78 62 155 122 77 61 156 124 175
141 19 16 69 57 110 91 113 93 238 202 307 267 13 12 26 22 28 22 2 0 27 21
54 48 28 26 90 83 138 127 114 104 584 575 689 690 150 165 232 258 284 322
29 35 115 138 120 143 3 3 18 23 35 45 16 21 36 46 45 55 8 8 26 31 40 50 13
19 27 37 30 40 4 3 26 32 50 65 24 33 50 66 57 73 7 7 13 17 13 21 0 4 8 16
18 27 28 31 92 123 92 133 0 5 4 11 9 13 22 8 252 370 376 593 84 150 247 484
252 514 1 8 9 28 17 45 9 17 26 60 40 96 13 36 27 74 31 85 5 11 9 22 10 25 1
3 4 12 8 20 3 8 16 49 28 90 12 41 24 80 28 85 3 6 6 17 8 25 2 14 20 78 31
110 2 8 6 24 7 36 2 11 8 39 15 63 6 23 13 54 15 69 2 15 8 47 13 72 6 25 13
65 17 90 3 25 8 52 10 60 2 8 7 48 10 88 4 41 9 88 12 105 2 18 6 48 8 67 2
34 14 153 20 215 4 34 15 189 21 285 12 205 16 305 17 489 2 172 0 205 -13
212 -69 36 -302 133 -345 143 -5 1 -53 16 -105 34 -134 44 -415 124 -525 149
-11 2 -29 6 -40 8 -11 3 -30 7 -42 10 -13 3 -31 7 -41 9 -9 2 -35 9 -57 14
-22 6 -53 13 -70 16 -16 2 -62 11 -100 20 -85 18 -119 24 -165 32 -19 3 -42 7
-50 9 -8 2 -31 7 -50 10 -19 3 -48 8 -65 11 -16 3 -43 7 -60 10 -16 2 -41 6
-55 9 -14 2 -43 7 -65 10 -23 3 -52 8 -65 10 -26 5 -98 16 -140 20 -23 3 -68
9 -150 20 -19 3 -57 7 -85 11 -27 3 -61 7 -75 9 -14 2 -59 7 -100 10 -41 3
-86 8 -100 10 -37 6 -127 15 -200 20 -36 2 -96 7 -135 10 -67 6 -94 8 -285 20
-237 14 -703 27 -900 26 l-75 -1 0 -1025 0 -1025 25 0 c14 0 252 -1 530 -2
534 -1 582 -4 725 -43 208 -56 317 -170 312 -324 -1 -22 1 -42 4 -44 11 -5
-20 -174 -46 -242 -14 -38 -27 -74 -29 -80 -11 -44 -144 -291 -170 -318 -7 -6
-13 -15 -14 -20 -2 -9 -11 -23 -88 -127 -30 -41 -58 -77 -63 -80 -4 -3 -12
-12 -17 -22 -32 -57 -289 -320 -429 -439 -145 -122 -325 -252 -480 -346 -71
-43 -126 -73 -135 -73 -5 0 -10 -4 -10 -8 0 -4 -16 -14 -35 -21 -19 -7 -35
-16 -35 -21 0 -5 -8 -7 -17 -3 -24 9 -260 170 -283 193 -3 3 -12 10 -21 15
-27 17 -173 128 -196 150 -12 11 -28 25 -35 30 -100 75 -340 304 -479 455 -89
96 -309 381 -309 399 0 5 -3 11 -7 13 -9 3 -73 96 -73 104 0 3 -14 25 -30 49
-17 24 -30 46 -30 49 0 2 -23 43 -50 91 -28 48 -50 89 -50 91 0 2 -17 41 -39
87 -58 122 -75 163 -111 262 -17 50 -36 99 -41 110 -13 31 -59 198 -65 236 -6
41 -10 144 -28 734 -3 88 -8 223 -11 300 -3 77 -8 219 -11 315 -3 96 -7 220
-9 275 -16 450 -19 575 -12 582 2 1 14 5 28 7 13 2 24 5 24 6 0 1 11 3 25 5
14 2 59 11 100 20 41 9 91 18 110 21 19 3 58 9 85 14 53 10 105 18 170 26 22
3 54 7 70 9 17 2 57 6 90 10 33 4 71 8 85 10 14 2 57 7 95 10 39 3 86 8 105
10 19 3 78 7 130 10 52 3 136 8 185 11 191 11 301 13 615 14 275 0 575 -5 575
-10 0 -1 34 -3 75 -5 132 -5 294 -15 330 -20 19 -3 71 -7 115 -10 44 -3 94 -7
110 -9 17 -2 66 -7 110 -11 44 -3 96 -9 115 -12 19 -2 49 -6 65 -8 131 -13
171 -18 177 -21 4 -3 31 -7 60 -9 29 -3 64 -7 78 -9 14 -2 48 -7 75 -10 28 -4
73 -11 100 -16 46 -8 96 -16 170 -26 17 -2 50 -8 75 -13 25 -6 79 -15 120 -22
41 -6 82 -13 90 -16 8 -3 28 -7 44 -9 16 -2 41 -7 55 -10 26 -6 110 -22 146
-29 11 -2 52 -11 90 -20 39 -9 81 -18 95 -21 14 -3 33 -7 42 -10 10 -3 30 -7
45 -10 16 -3 44 -9 63 -14 19 -5 46 -11 60 -14 14 -3 43 -10 65 -16 22 -6 50
-13 61 -15 12 -3 64 -16 115 -30 52 -14 105 -28 119 -31 14 -3 88 -23 165 -46
77 -22 147 -41 155 -43 8 -2 15 -4 15 -5 0 -1 7 -3 15 -5 26 -5 154 -46 175
-56 11 -5 29 -11 40 -12 20 -4 39 -10 83 -28 21 -8 22 -6 23 44 0 28 2 186 4
349 2 164 6 302 9 307 4 5 2 12 -4 16 -6 4 -7 11 -4 17 4 6 8 164 10 352 7
695 12 955 18 965 4 5 2 12 -3 16 -6 3 -8 12 -4 20 8 22 -4 62 -19 63 -7 0
-60 19 -118 41 -58 23 -139 53 -180 67 -41 14 -82 28 -90 32 -8 3 -18 6 -22 7
-5 2 -10 4 -13 5 -3 1 -8 3 -12 4 -5 1 -62 19 -128 39 -180 57 -258 79 -280
82 -5 1 -35 9 -66 19 -31 9 -65 18 -75 20 -11 2 -48 12 -84 21 -36 9 -72 18
-80 20 -8 2 -43 10 -78 19 -34 9 -84 21 -110 27 -26 5 -57 11 -69 14 -13 3
-34 7 -48 9 -13 3 -28 7 -33 9 -4 3 -27 8 -52 12 -25 4 -47 8 -50 10 -3 2 -22
6 -43 9 -21 3 -71 13 -110 21 -71 14 -92 18 -172 31 -22 3 -44 7 -50 9 -44 9
-130 24 -185 30 -25 3 -56 8 -70 11 -33 7 -54 10 -119 19 -30 4 -62 8 -71 10
-9 2 -41 6 -71 10 -30 3 -65 8 -79 10 -14 2 -47 7 -75 10 -27 3 -66 8 -85 10
-19 3 -60 7 -90 10 -30 3 -77 7 -105 10 -27 2 -77 7 -110 10 -33 3 -89 7 -125
10 -36 3 -87 8 -115 10 -27 3 -97 7 -155 11 -58 3 -136 8 -175 11 -113 7
-1125 11 -1125 4z"/>
</g>
</svg>
